<?xml version="1.0" standalone="no"?>
<!DOCTYPE svg PUBLIC "-//W3C//DTD SVG 20010904//EN"
 "http://www.w3.org/TR/2001/REC-SVG-20010904/DTD/svg10.dtd">
<svg version="1.0" xmlns="http://www.w3.org/2000/svg"
 width="220.000000pt" height="220.000000pt" viewBox="0 0 220.000000 220.000000"
 preserveAspectRatio="xMidYMid meet">
<metadata>
Created by potrace 1.11, written by Peter Selinger 2001-2013
</metadata>
<g transform="translate(0.000000,220.000000) scale(0.100000,-0.100000)"
fill="#000000" stroke="none">
<path d="M785 2143 c-5 -5 -42 -15 -81 -21 -133 -21 -235 -83 -312 -186 -85
-116 -121 -228 -131 -410 l-6 -118 -49 -19 c-147 -55 -209 -229 -135 -377 34
-70 67 -101 150 -143 70 -35 66 -17 74 -314 8 -300 10 -318 50 -361 25 -26 40
-34 67 -34 23 0 42 -7 54 -21 13 -15 26 -19 46 -15 16 3 28 1 28 -4 0 -5 9
-14 21 -21 17 -9 25 -7 44 11 15 14 25 18 30 11 3 -6 16 -11 28 -11 13 0 30
-9 40 -20 21 -25 43 -26 56 -3 8 16 11 15 28 -6 16 -20 23 -22 41 -12 11 6 31
11 44 11 27 0 68 57 68 94 0 13 -10 35 -21 50 -12 15 -20 29 -18 31 3 2 31 -5
63 -16 32 -11 97 -25 143 -30 144 -16 229 8 371 107 35 24 66 44 71 44 4 0 12
-39 18 -87 10 -78 14 -90 42 -115 20 -18 43 -28 62 -28 16 0 41 -7 55 -16 17
-12 36 -15 64 -10 37 6 40 5 40 -18 0 -32 19 -46 76 -52 65 -8 95 15 103 77 6
41 8 44 35 41 42 -5 83 16 96 49 14 33 4 89 -36 204 -38 110 -83 381 -94 563
-7 117 -14 170 -25 185 -22 32 -19 60 15 114 35 56 53 140 44 200 -13 91 -127
213 -215 232 -27 6 -67 11 -87 11 -33 0 -40 5 -65 45 -49 77 -151 160 -282
230 -146 77 -203 97 -381 131 -169 33 -216 38 -229 27z m785 -473 c12 -7 16
-38 18 -147 3 -128 1 -141 -20 -182 -37 -73 -63 -85 -179 -89 -138 -5 -145 -3
-177 66 -14 31 -25 73 -25 92 1 19 -4 44 -11 55 -18 27 -28 77 -18 91 4 6 49
28 101 49 160 65 274 89 311 65z m-516 -95 c1 -44 6 -88 10 -97 6 -13 -2 -20
-48 -34 -31 -10 -59 -15 -62 -11 -4 4 -10 28 -15 54 -4 27 -10 55 -13 63 -5
11 3 18 26 25 21 7 42 24 57 48 14 20 29 36 33 35 5 -2 10 -39 12 -83z m771
10 c39 -16 88 -64 112 -109 21 -40 11 -113 -24 -178 -34 -63 -125 -145 -175
-159 -51 -13 -76 -50 -58 -87 9 -19 12 -75 11 -192 -2 -217 -14 -253 -120
-360 -95 -94 -169 -151 -246 -186 -149 -69 -389 -10 -566 138 -119 101 -193
234 -209 376 -9 87 -26 107 -75 97 -80 -17 -103 -16 -165 5 -81 27 -133 64
-162 115 -43 77 -19 198 48 237 17 10 58 18 99 20 l70 3 35 -88 c19 -49 46
-99 59 -113 22 -23 28 -24 165 -24 172 0 230 14 275 65 l31 36 0 -27 c0 -28
26 -55 110 -117 25 -18 45 -38 45 -44 0 -7 -16 -22 -35 -35 -41 -28 -51 -69
-24 -99 25 -28 53 -23 104 17 60 47 80 73 80 107 0 43 -15 63 -83 112 -35 26
-71 61 -82 82 -22 42 -63 55 -92 31 -15 -12 -16 -9 -10 21 4 18 7 46 7 60 0
25 6 29 70 50 39 13 72 22 74 20 2 -2 13 -35 26 -73 34 -102 58 -125 150 -137
141 -19 277 7 339 64 13 12 37 49 52 82 27 56 29 68 29 183 l0 122 50 0 c28 0
66 -7 85 -15z m-1039 -45 c16 -6 36 -20 44 -33 18 -29 26 -189 11 -245 -19
-67 -42 -77 -189 -77 -121 0 -125 1 -141 24 -29 44 -103 223 -97 236 7 18 82
62 148 85 59 21 176 26 224 10z"/>
<path d="M1350 1541 c-14 -4 -31 -20 -39 -36 -12 -25 -12 -35 0 -69 25 -74
104 -77 133 -6 37 93 0 137 -94 111z"/>
<path d="M1722 1498 c-16 -16 -15 -33 2 -48 11 -8 13 -24 9 -60 -5 -45 -3 -51
25 -79 40 -41 91 -42 129 -5 22 22 25 32 21 75 -6 56 -33 93 -85 115 -40 17
-85 18 -101 2z m106 -80 c7 -7 12 -25 12 -40 0 -21 -5 -28 -19 -28 -26 0 -32
12 -25 49 7 34 13 38 32 19z"/>
<path d="M204 1173 c-9 -21 -19 -63 -21 -93 -6 -67 14 -98 68 -106 81 -13 127
89 64 143 -14 13 -32 23 -40 23 -8 0 -12 11 -11 33 1 26 -3 33 -21 35 -17 3
-26 -5 -39 -35z m76 -122 c0 -13 -11 -20 -26 -14 -8 3 -14 14 -14 24 0 17 3
18 20 9 11 -6 20 -14 20 -19z"/>
<path d="M1336 788 c-9 -12 -16 -35 -16 -51 0 -59 -56 -153 -114 -188 -70 -43
-173 -7 -265 92 -57 62 -86 73 -115 43 -32 -32 -20 -60 56 -125 126 -109 260
-150 343 -106 62 32 161 162 199 261 17 43 17 48 2 71 -21 33 -69 34 -90 3z"/>
<path d="M573 1470 c-35 -14 -45 -44 -32 -93 14 -54 35 -77 69 -77 37 0 58 26
65 86 6 45 4 55 -14 73 -22 22 -51 26 -88 11z"/>
</g>
</svg>
